<svg width="26" height="28" viewBox="0 0 26 28" fill="none" xmlns="http://www.w3.org/2000/svg">
<path d="M13.007 1.32473e-05C14.7535 -0.00267681 16.4335 0.6696 17.696 1.8764C18.9585 3.08319 19.7059 4.73116 19.782 6.47601H19.747C19.7512 6.5812 19.731 6.68595 19.688 6.78201H19.9C21.551 6.78201 23.279 7.92601 23.972 10.688L24.047 11.014L25.09 19.414C25.841 24.773 22.909 27.027 18.909 27.122H18.641H7.39298C3.32798 27.122 0.192984 25.641 0.884984 19.775L0.931984 19.41L1.98698 11.01C2.50698 8.03601 4.25298 6.86301 5.93598 6.78301H6.12298H6.22898C6.21111 6.6818 6.21111 6.57823 6.22898 6.47701C6.30484 4.73146 7.05252 3.08281 8.31571 1.87572C9.57889 0.66863 11.2598 -0.0034407 13.007 1.32473e-05ZM9.06298 11.3C8.81759 11.2933 8.57575 11.3598 8.3684 11.4913C8.16104 11.6227 7.9976 11.8129 7.89897 12.0377C7.80033 12.2626 7.77099 12.5117 7.8147 12.7532C7.8584 12.9948 7.97317 13.2178 8.14431 13.3938C8.31546 13.5698 8.53521 13.6908 8.77546 13.7412C9.01572 13.7917 9.26555 13.7693 9.49302 13.677C9.7205 13.5847 9.91526 13.4266 10.0524 13.223C10.1896 13.0194 10.2629 12.7795 10.263 12.534L10.254 12.379C10.2217 12.0846 10.0827 11.8123 9.86326 11.6135C9.6438 11.4147 9.3591 11.3031 9.06298 11.3ZM16.915 11.3C16.6696 11.2933 16.4277 11.3598 16.2204 11.4913C16.013 11.6227 15.8496 11.8129 15.751 12.0377C15.6523 12.2626 15.623 12.5117 15.6667 12.7532C15.7104 12.9948 15.8252 13.2178 15.9963 13.3938C16.1675 13.5698 16.3872 13.6908 16.6275 13.7412C16.8677 13.7917 17.1176 13.7693 17.345 13.677C17.5725 13.5847 17.7673 13.4266 17.9044 13.223C18.0416 13.0194 18.1149 12.7795 18.115 12.534C18.1172 12.3741 18.0879 12.2153 18.0288 12.0667C17.9696 11.9182 17.8818 11.7827 17.7702 11.6681C17.6587 11.5535 17.5257 11.462 17.3787 11.3988C17.2318 11.3357 17.0749 11.3021 16.915 11.3ZM12.954 1.76601C12.3344 1.76483 11.7206 1.88573 11.1477 2.12182C10.5748 2.3579 10.0541 2.70454 9.61522 3.14193C9.17634 3.57932 8.82794 4.09889 8.58991 4.67096C8.35189 5.24304 8.2289 5.8564 8.22798 6.47601C8.24585 6.57723 8.24585 6.6808 8.22798 6.78201H17.738C17.7003 6.68434 17.6803 6.58071 17.679 6.47601C17.6781 5.85648 17.5551 5.2432 17.3172 4.6712C17.0792 4.09919 16.7309 3.57966 16.2921 3.14229C15.8533 2.70491 15.3327 2.35825 14.7599 2.12211C14.1872 1.88596 13.5735 1.76496 12.954 1.76601Z" fill="white"/>
</svg>
