<svg width="27" height="19" viewBox="0 0 27 19" fill="none" xmlns="http://www.w3.org/2000/svg">
<path d="M18.0186 9.81992C17.6806 9.81939 17.3485 9.73179 17.0543 9.56556C16.76 9.39934 16.5135 9.1601 16.3386 8.87092L13.7306 4.54592L11.1306 8.87092C10.9554 9.16103 10.7084 9.40111 10.4135 9.56803C10.1185 9.73495 9.78552 9.82308 9.44661 9.82392C9.26381 9.82484 9.08186 9.7989 8.90661 9.74692L3.34961 8.15692V15.3779C3.34912 15.6672 3.44558 15.9483 3.62358 16.1763C3.80158 16.4044 4.05086 16.5662 4.33161 16.6359L13.1026 18.8309C13.5158 18.9324 13.9474 18.9324 14.3606 18.8309L23.1396 16.6359C23.4198 16.5652 23.6685 16.4032 23.8464 16.1753C24.0242 15.9475 24.121 15.6669 24.1216 15.3779V8.15692L18.5636 9.74292C18.3867 9.79538 18.2031 9.82133 18.0186 9.81992ZM26.6436 5.26792L24.5496 1.09792C24.488 0.974813 24.3897 0.873918 24.2682 0.809231C24.1467 0.744544 24.0081 0.719271 23.8716 0.736918L13.7306 2.03092L17.4496 8.20192C17.5247 8.32727 17.6388 8.42452 17.7745 8.47871C17.9101 8.53291 18.0598 8.54106 18.2006 8.50192L26.2296 6.20592C26.3234 6.17883 26.4102 6.1315 26.4838 6.06726C26.5573 6.00302 26.6159 5.92342 26.6554 5.83408C26.6949 5.74475 26.7143 5.64784 26.7122 5.55019C26.7102 5.45255 26.6868 5.35553 26.6436 5.26792ZM2.90661 1.09792L0.817608 5.26892C0.773843 5.35589 0.749834 5.45146 0.747295 5.5488C0.744756 5.64613 0.763752 5.74282 0.802923 5.83196C0.842094 5.9211 0.900474 6.00048 0.973889 6.06443C1.0473 6.12839 1.13394 6.17534 1.22761 6.20192L9.25561 8.49392C9.39637 8.53306 9.54608 8.52491 9.68176 8.47071C9.81743 8.41652 9.93156 8.31927 10.0066 8.19392L13.7306 2.02692L3.57961 0.736918C3.4439 0.720359 3.30639 0.746159 3.18591 0.810784C3.06543 0.875409 2.96788 0.975699 2.90661 1.09792Z" fill="black"/>
</svg>
