<svg width="205" height="41" viewBox="0 0 205 41" fill="none" xmlns="http://www.w3.org/2000/svg">
<path d="M10.5938 33V8.27273H21.267C23.1023 8.27273 24.7081 8.63494 26.0845 9.35938C27.4609 10.0838 28.5315 11.102 29.2962 12.4141C30.0608 13.7261 30.4432 15.2595 30.4432 17.0142C30.4432 18.785 30.0488 20.3184 29.2599 21.6143C28.4792 22.9103 27.3804 23.9084 25.9638 24.6087C24.5552 25.3089 22.9091 25.6591 21.0256 25.6591H14.6506V20.4432H19.6733C20.4621 20.4432 21.1342 20.3063 21.6896 20.0327C22.2531 19.7509 22.6837 19.3525 22.9815 18.8374C23.2874 18.3222 23.4403 17.7145 23.4403 17.0142C23.4403 16.3059 23.2874 15.7022 22.9815 15.2031C22.6837 14.696 22.2531 14.3097 21.6896 14.044C21.1342 13.7704 20.4621 13.6335 19.6733 13.6335H17.3068V33H10.5938ZM41.5391 33.3381C39.5268 33.3381 37.8042 32.9396 36.3714 32.1428C34.9387 31.3378 33.84 30.219 33.0753 28.7862C32.3106 27.3454 31.9283 25.6752 31.9283 23.7756C31.9283 21.8759 32.3106 20.2098 33.0753 18.777C33.84 17.3362 34.9387 16.2173 36.3714 15.4205C37.8042 14.6155 39.5268 14.2131 41.5391 14.2131C43.5514 14.2131 45.2739 14.6155 46.7067 15.4205C48.1394 16.2173 49.2382 17.3362 50.0028 18.777C50.7675 20.2098 51.1499 21.8759 51.1499 23.7756C51.1499 25.6752 50.7675 27.3454 50.0028 28.7862C49.2382 30.219 48.1394 31.3378 46.7067 32.1428C45.2739 32.9396 43.5514 33.3381 41.5391 33.3381ZM41.5874 28.4119C42.1508 28.4119 42.6378 28.2228 43.0483 27.8445C43.4588 27.4661 43.7768 26.9268 44.0021 26.2266C44.2275 25.5263 44.3402 24.6932 44.3402 23.7273C44.3402 22.7533 44.2275 21.9202 44.0021 21.228C43.7768 20.5277 43.4588 19.9884 43.0483 19.6101C42.6378 19.2318 42.1508 19.0426 41.5874 19.0426C40.9917 19.0426 40.4806 19.2318 40.054 19.6101C39.6274 19.9884 39.3014 20.5277 39.076 21.228C38.8506 21.9202 38.7379 22.7533 38.7379 23.7273C38.7379 24.6932 38.8506 25.5263 39.076 26.2266C39.3014 26.9268 39.6274 27.4661 40.054 27.8445C40.4806 28.2228 40.9917 28.4119 41.5874 28.4119ZM56.8065 33L52.1701 14.4545H58.8349L60.9599 25.7557H61.1048L63.4712 14.4545H69.9428L72.4059 25.6591H72.5508L74.5792 14.4545H81.244L76.6076 33H69.4116L66.8036 23.0511H66.6104L64.0025 33H56.8065ZM91.8267 33.3381C89.8466 33.3381 88.1402 32.9598 86.7074 32.2031C85.2827 31.4384 84.1839 30.3437 83.4112 28.919C82.6465 27.4863 82.2642 25.7718 82.2642 23.7756C82.2642 21.8598 82.6506 20.1856 83.4233 18.7528C84.196 17.3201 85.2867 16.2053 86.6953 15.4084C88.1039 14.6115 89.7661 14.2131 91.6818 14.2131C93.0824 14.2131 94.3501 14.4304 95.4851 14.8651C96.62 15.2997 97.59 15.9316 98.3949 16.7607C99.1998 17.5817 99.8196 18.5798 100.254 19.755C100.689 20.9302 100.906 22.2543 100.906 23.7273V25.2727H84.3409V21.6023H94.7727C94.7647 21.071 94.6278 20.6042 94.3622 20.2017C94.1046 19.7912 93.7545 19.4732 93.3118 19.2479C92.8771 19.0144 92.3821 18.8977 91.8267 18.8977C91.2874 18.8977 90.7924 19.0144 90.3416 19.2479C89.8909 19.4732 89.5286 19.7872 89.255 20.1896C88.9893 20.5921 88.8485 21.063 88.8324 21.6023V25.5625C88.8324 26.1581 88.9571 26.6894 89.2067 27.1562C89.4562 27.6231 89.8144 27.9893 90.2812 28.255C90.7481 28.5206 91.3116 28.6534 91.9716 28.6534C92.4304 28.6534 92.849 28.589 93.2273 28.4602C93.6136 28.3314 93.9437 28.1463 94.2173 27.9048C94.491 27.6553 94.6922 27.3575 94.821 27.0114H100.906C100.697 28.2992 100.202 29.4181 99.4212 30.3679C98.6404 31.3097 97.6061 32.0421 96.3182 32.5653C95.0384 33.0805 93.5412 33.3381 91.8267 33.3381ZM103.626 33V14.4545H110.097V17.9801H110.291C110.629 16.6761 111.164 15.7223 111.896 15.1186C112.637 14.5149 113.502 14.2131 114.492 14.2131C114.782 14.2131 115.068 14.2372 115.35 14.2855C115.639 14.3258 115.917 14.3861 116.183 14.4666V20.1534C115.853 20.0407 115.446 19.9562 114.963 19.8999C114.48 19.8435 114.066 19.8153 113.72 19.8153C113.068 19.8153 112.48 19.9643 111.957 20.2621C111.442 20.5518 111.035 20.9624 110.737 21.4936C110.44 22.0168 110.291 22.6326 110.291 23.3409V33H103.626ZM131.601 16C131.537 15.1951 131.235 14.5672 130.695 14.1165C130.164 13.6657 129.355 13.4403 128.269 13.4403C127.576 13.4403 127.009 13.5249 126.566 13.6939C126.132 13.8549 125.81 14.0762 125.6 14.358C125.391 14.6397 125.282 14.9616 125.274 15.3239C125.258 15.6217 125.311 15.8913 125.431 16.1328C125.56 16.3662 125.761 16.5795 126.035 16.7727C126.309 16.9579 126.659 17.1269 127.085 17.2798C127.512 17.4328 128.019 17.5696 128.607 17.6903L130.635 18.125C132.003 18.4148 133.175 18.7971 134.149 19.272C135.123 19.7469 135.919 20.3063 136.539 20.9503C137.159 21.5862 137.614 22.3026 137.904 23.0994C138.201 23.8963 138.354 24.7656 138.362 25.7074C138.354 27.3333 137.948 28.7098 137.143 29.8366C136.338 30.9635 135.187 31.8208 133.69 32.4084C132.201 32.996 130.41 33.2898 128.317 33.2898C126.168 33.2898 124.292 32.9718 122.691 32.3359C121.097 31.7 119.857 30.7221 118.972 29.402C118.094 28.0739 117.652 26.3755 117.644 24.3068H124.019C124.059 25.0634 124.248 25.6993 124.586 26.2145C124.924 26.7296 125.399 27.12 126.011 27.3857C126.631 27.6513 127.367 27.7841 128.22 27.7841C128.937 27.7841 129.536 27.6955 130.019 27.5185C130.502 27.3414 130.869 27.0959 131.118 26.782C131.368 26.468 131.496 26.1098 131.504 25.7074C131.496 25.3291 131.372 24.9991 131.13 24.7173C130.897 24.4276 130.51 24.17 129.971 23.9446C129.432 23.7112 128.703 23.4938 127.786 23.2926L125.323 22.7614C123.133 22.2865 121.407 21.4936 120.143 20.3828C118.887 19.264 118.263 17.7386 118.271 15.8068C118.263 14.2372 118.682 12.8648 119.527 11.6896C120.38 10.5064 121.56 9.58475 123.065 8.92471C124.578 8.26468 126.313 7.93466 128.269 7.93466C130.265 7.93466 131.991 8.2687 133.448 8.93679C134.905 9.60488 136.028 10.5466 136.817 11.7621C137.614 12.9695 138.016 14.3821 138.024 16H131.601ZM147.677 22.5682V33H141.013V8.27273H147.436V17.9801H147.629C148.048 16.7969 148.744 15.8752 149.718 15.2152C150.692 14.5471 151.863 14.2131 153.231 14.2131C154.543 14.2131 155.682 14.5109 156.648 15.1065C157.622 15.7022 158.375 16.5232 158.906 17.5696C159.445 18.616 159.711 19.8153 159.703 21.1676V33H153.038V22.5682C153.046 21.6506 152.817 20.9302 152.35 20.407C151.891 19.8838 151.235 19.6222 150.382 19.6222C149.843 19.6222 149.368 19.7429 148.957 19.9844C148.555 20.2178 148.241 20.5559 148.015 20.9986C147.798 21.4332 147.685 21.9564 147.677 22.5682ZM171.928 33.3381C169.915 33.3381 168.193 32.9396 166.76 32.1428C165.327 31.3378 164.229 30.219 163.464 28.7862C162.699 27.3454 162.317 25.6752 162.317 23.7756C162.317 21.8759 162.699 20.2098 163.464 18.777C164.229 17.3362 165.327 16.2173 166.76 15.4205C168.193 14.6155 169.915 14.2131 171.928 14.2131C173.94 14.2131 175.663 14.6155 177.095 15.4205C178.528 16.2173 179.627 17.3362 180.392 18.777C181.156 20.2098 181.539 21.8759 181.539 23.7756C181.539 25.6752 181.156 27.3454 180.392 28.7862C179.627 30.219 178.528 31.3378 177.095 32.1428C175.663 32.9396 173.94 33.3381 171.928 33.3381ZM171.976 28.4119C172.539 28.4119 173.026 28.2228 173.437 27.8445C173.847 27.4661 174.165 26.9268 174.391 26.2266C174.616 25.5263 174.729 24.6932 174.729 23.7273C174.729 22.7533 174.616 21.9202 174.391 21.228C174.165 20.5277 173.847 19.9884 173.437 19.6101C173.026 19.2318 172.539 19.0426 171.976 19.0426C171.38 19.0426 170.869 19.2318 170.443 19.6101C170.016 19.9884 169.69 20.5277 169.465 21.228C169.239 21.9202 169.127 22.7533 169.127 23.7273C169.127 24.6932 169.239 25.5263 169.465 26.2266C169.69 26.9268 170.016 27.4661 170.443 27.8445C170.869 28.2228 171.38 28.4119 171.976 28.4119ZM184.243 39.9545V14.4545H190.86V17.6903H191.004C191.246 17.0625 191.6 16.487 192.067 15.9638C192.534 15.4325 193.113 15.0099 193.806 14.696C194.498 14.3741 195.303 14.2131 196.22 14.2131C197.444 14.2131 198.607 14.5391 199.71 15.1911C200.82 15.843 201.722 16.8693 202.414 18.2699C203.115 19.6705 203.465 21.4896 203.465 23.7273C203.465 25.8684 203.131 27.6432 202.463 29.0518C201.802 30.4605 200.917 31.5109 199.806 32.2031C198.704 32.8954 197.492 33.2415 196.172 33.2415C195.303 33.2415 194.526 33.1006 193.842 32.8189C193.166 32.5291 192.586 32.1387 192.103 31.6477C191.628 31.1487 191.262 30.5852 191.004 29.9574H190.908V39.9545H184.243ZM190.763 23.7273C190.763 24.6288 190.88 25.4096 191.113 26.0696C191.355 26.7216 191.693 27.2287 192.127 27.5909C192.57 27.9451 193.097 28.1222 193.709 28.1222C194.321 28.1222 194.84 27.9491 195.267 27.603C195.701 27.2488 196.031 26.7457 196.257 26.0938C196.49 25.4337 196.607 24.6449 196.607 23.7273C196.607 22.8097 196.49 22.0249 196.257 21.3729C196.031 20.7128 195.701 20.2098 195.267 19.8636C194.84 19.5095 194.321 19.3324 193.709 19.3324C193.097 19.3324 192.57 19.5095 192.127 19.8636C191.693 20.2098 191.355 20.7128 191.113 21.3729C190.88 22.0249 190.763 22.8097 190.763 23.7273Z" fill="#5F1B1B"/>
<path d="M10.6758 13.3518C11.4661 13.5642 12.1398 14.0817 12.5489 14.7905C12.958 15.4993 13.069 16.3415 12.8576 17.1321L11.8441 20.9121L13.6737 21.4026L14.6872 17.6227C15.0293 16.3468 14.8505 14.9873 14.1902 13.8432C13.5299 12.6992 12.4422 11.8643 11.1663 11.5222C9.89044 11.1801 8.53093 11.3589 7.38687 12.0192C6.2428 12.6795 5.40789 13.7672 5.06581 15.0431L4.05234 18.823L5.88195 19.3136L6.89541 15.5336C7.10786 14.7433 7.62532 14.0696 8.33414 13.6605C9.04295 13.2514 9.88515 13.1404 10.6758 13.3518ZM8.74682 16.7693L6.53573 25.016L8.42716 25.5232L10.6388 17.2745L8.74682 16.7693ZM12.1075 27.2441L13.121 23.4641L11.2914 22.9735L10.2779 26.7535C10.0659 27.5441 9.54857 28.2182 8.83962 28.6273C8.13066 29.0365 7.28821 29.1473 6.49758 28.9353C5.70695 28.7233 5.03291 28.206 4.62374 27.497C4.21457 26.788 4.10379 25.9456 4.31577 25.155L5.32924 21.375L3.49964 20.8845L2.48617 24.6644C2.14409 25.9403 2.32286 27.2998 2.98315 28.4439C3.64343 29.5879 4.73116 30.4228 6.00703 30.7649C7.2829 31.107 8.64241 30.9282 9.78647 30.2679C10.9305 29.6076 11.7654 28.5199 12.1075 27.2441Z" fill="#5F1B1B" stroke="#5F1B1B" stroke-width="4.00047"/>
<path d="M10.3932 13.9729C11.0768 14.1565 11.6596 14.604 12.0134 15.2171C12.3673 15.8301 12.4632 16.5586 12.2801 17.2424L11.4037 20.5114L12.986 20.9356L13.8625 17.6667C14.1583 16.5632 14.0037 15.3874 13.4326 14.398C12.8616 13.4085 11.9209 12.6864 10.8174 12.3906C9.71395 12.0947 8.53817 12.2493 7.54872 12.8204C6.55926 13.3915 5.83718 14.3322 5.54133 15.4356L4.66487 18.7046L6.24718 19.1288L7.12364 15.8599C7.30721 15.1762 7.75472 14.5934 8.3678 14.2396C8.98088 13.8858 9.70938 13.7898 10.3932 13.9729ZM8.72537 16.9261L6.81317 24.0581L8.44765 24.4963L10.3598 17.3644L8.72537 16.9261ZM11.6317 25.9868L12.5079 22.7188L10.9256 22.2946L10.0494 25.5626C9.85533 26.2341 9.40561 26.8027 8.79685 27.1462C8.18809 27.4898 7.46887 27.5808 6.79372 27.3998C6.11856 27.2188 5.54135 26.7801 5.18611 26.1781C4.83086 25.5762 4.72592 24.8588 4.89384 24.1803L5.77003 20.9123L4.18676 20.4878L3.31056 23.7558C3.01471 24.8592 3.16932 26.035 3.74038 27.0245C4.31143 28.0139 5.25216 28.736 6.35561 29.0319C7.45906 29.3277 8.63484 29.1731 9.6243 28.6021C10.6138 28.031 11.3358 27.0903 11.6317 25.9868Z" fill="white"/>
</svg>
