<svg width="27" height="22" viewBox="0 0 27 22" fill="none" xmlns="http://www.w3.org/2000/svg">
<path d="M13.2076 16.4999H21.1326V9.89994H23.7746V20.4619C23.7749 20.6355 23.7409 20.8074 23.6746 20.9678C23.6083 21.1282 23.511 21.2739 23.3883 21.3966C23.2656 21.5193 23.1199 21.6166 22.9595 21.6829C22.7991 21.7492 22.6272 21.7832 22.4536 21.7829H11.8866C11.7131 21.7832 11.5412 21.7492 11.3808 21.6829C11.2204 21.6166 11.0747 21.5193 10.9519 21.3966C10.8292 21.2739 10.7319 21.1282 10.6656 20.9678C10.5993 20.8074 10.5654 20.6355 10.5656 20.4619V9.89494H13.2076V16.4999ZM0.221622 6.51894L3.74262 1.23494C3.86423 1.05444 4.02833 0.906592 4.22049 0.804408C4.41265 0.702224 4.62698 0.648835 4.84462 0.648938H21.5706C21.7881 0.648018 22.0025 0.70107 22.1945 0.80334C22.3864 0.90561 22.55 1.0539 22.6706 1.23494L26.1896 6.51894C26.3229 6.71797 26.3995 6.94949 26.4114 7.18872C26.4232 7.42796 26.3698 7.66591 26.2568 7.87712C26.1438 8.08832 25.9755 8.26482 25.7699 8.38774C25.5643 8.51066 25.3292 8.57537 25.0896 8.57494H1.31962C1.08054 8.57433 0.846082 8.50894 0.641189 8.38572C0.436296 8.26251 0.268622 8.08608 0.155993 7.87518C0.0433642 7.66428 -0.0100095 7.4268 0.00154656 7.188C0.0131026 6.94919 0.0891564 6.71797 0.221622 6.51894ZM5.28262 21.1189C5.28209 21.2938 5.21239 21.4614 5.08873 21.585C4.96507 21.7087 4.7975 21.7784 4.62262 21.7789H3.30062C3.12574 21.7784 2.95817 21.7087 2.83451 21.585C2.71085 21.4614 2.64115 21.2938 2.64062 21.1189V9.89494H5.28262V21.1189Z" fill="#A0A0A0"/>
</svg>
