<svg width="27" height="24" viewBox="0 0 27 24" fill="none" xmlns="http://www.w3.org/2000/svg">
<path d="M23.0837 6.17695H5.10066C4.90042 6.17695 4.70838 6.0974 4.56679 5.95581C4.4252 5.81422 4.34566 5.62219 4.34566 5.42195C4.34566 5.22171 4.4252 5.02967 4.56679 4.88808C4.70838 4.74649 4.90042 4.66695 5.10066 4.66695H23.2167C23.4169 4.66695 23.6089 4.5874 23.7505 4.44581C23.8921 4.30422 23.9717 4.11219 23.9717 3.91195C23.9717 3.61455 23.9131 3.32007 23.7992 3.04532C23.6854 2.77058 23.5185 2.52095 23.3082 2.31071C23.0979 2.10046 22.8482 1.93372 22.5734 1.82C22.2986 1.70628 22.0041 1.64782 21.7067 1.64795H4.34566C3.54497 1.64795 2.77708 1.96602 2.2109 2.53219C1.64473 3.09837 1.32666 3.86626 1.32666 4.66695L1.32666 19.7669C1.32666 20.5676 1.64473 21.3355 2.2109 21.9017C2.77708 22.4679 3.54497 22.7859 4.34566 22.7859H23.0837C23.7019 22.8032 24.3018 22.5745 24.7517 22.1501C25.2016 21.7257 25.4648 21.1402 25.4837 20.5219V8.44095C25.4648 7.82273 25.2016 7.23721 24.7517 6.8128C24.3018 6.38838 23.7019 6.15972 23.0837 6.17695ZM20.9517 15.9899C20.653 15.9899 20.3611 15.9014 20.1127 15.7355C19.8644 15.5695 19.6709 15.3337 19.5566 15.0578C19.4423 14.7819 19.4124 14.4783 19.4707 14.1854C19.5289 13.8925 19.6728 13.6234 19.8839 13.4122C20.0951 13.201 20.3642 13.0572 20.6571 12.999C20.95 12.9407 21.2536 12.9706 21.5295 13.0849C21.8054 13.1992 22.0413 13.3927 22.2072 13.641C22.3731 13.8894 22.4617 14.1813 22.4617 14.4799C22.4614 14.8803 22.3022 15.2641 22.019 15.547C21.7359 15.83 21.352 15.9899 20.9517 15.9899Z" stroke="#A2A2A2" stroke-width="2"/>
</svg>
